<svg 
 xmlns="http://www.w3.org/2000/svg"
 xmlns:xlink="http://www.w3.org/1999/xlink"
 width="24px" height="20px">
<path fill-rule="evenodd"  fill="rgb(94, 209, 130)"
 d="M14.700,19.599 L14.700,17.800 L18.299,17.800 C18.720,17.800 19.75,17.655 19.365,17.364 C19.654,17.75 19.800,16.720 19.800,16.299 L19.800,13.299 C19.800,12.560 20.24,11.900 20.474,11.319 C20.924,10.740 21.500,10.340 22.200,10.119 L22.200,9.880 C21.500,9.679 20.924,9.284 20.474,8.694 C20.24,8.104 19.800,7.440 19.800,6.699 L19.800,3.700 C19.800,3.280 19.654,2.924 19.365,2.634 C19.75,2.345 18.720,2.200 18.299,2.200 L14.700,2.200 L14.700,0.400 L18.299,0.400 C19.219,0.400 19.999,0.720 20.639,1.359 C21.279,1.999 21.599,2.780 21.599,3.700 L21.599,6.699 C21.599,7.119 21.745,7.475 22.35,7.765 C22.324,8.54 22.680,8.199 23.100,8.199 L23.999,8.199 L23.999,11.800 L23.100,11.800 C22.680,11.800 22.324,11.944 22.35,12.234 C21.745,12.524 21.599,12.880 21.599,13.299 L21.599,16.299 C21.599,17.219 21.279,17.999 20.639,18.640 C19.999,19.280 19.219,19.599 18.299,19.599 L14.700,19.599 ZM5.699,19.599 C4.780,19.599 3.999,19.280 3.359,18.640 C2.719,17.999 2.399,17.219 2.399,16.299 L2.399,13.299 C2.399,12.880 2.255,12.524 1.964,12.234 C1.674,11.944 1.320,11.800 0.899,11.800 L0.0,11.800 L0.0,8.199 L0.899,8.199 C1.320,8.199 1.674,8.54 1.964,7.765 C2.255,7.475 2.399,7.119 2.399,6.699 L2.399,3.700 C2.399,2.780 2.719,1.999 3.359,1.359 C3.999,0.720 4.780,0.400 5.699,0.400 L9.299,0.400 L9.299,2.200 L5.699,2.200 C5.279,2.200 4.924,2.345 4.634,2.634 C4.344,2.924 4.200,3.280 4.200,3.700 L4.200,6.699 C4.200,7.440 3.974,8.104 3.524,8.694 C3.75,9.284 2.499,9.679 1.800,9.880 L1.800,10.119 C2.499,10.340 3.75,10.740 3.524,11.319 C3.974,11.900 4.200,12.560 4.200,13.299 L4.200,16.299 C4.200,16.720 4.344,17.75 4.634,17.364 C4.924,17.655 5.279,17.800 5.699,17.800 L9.299,17.800 L9.299,19.599 L5.699,19.599 Z"/>
</svg>