<svg 
 xmlns="http://www.w3.org/2000/svg"
 xmlns:xlink="http://www.w3.org/1999/xlink"
 width="18px" height="20px">
<path fill-rule="evenodd"  fill="rgb(94, 209, 130)"
 d="M17.172,5.247 C17.22,4.966 16.808,4.744 16.529,4.583 L9.921,0.632 C9.642,0.471 9.333,0.391 8.994,0.391 C8.655,0.391 8.346,0.471 8.67,0.632 L1.459,4.583 C1.180,4.744 0.966,4.966 0.816,5.247 C0.667,5.529 0.592,5.830 0.592,6.152 L0.592,13.904 C0.592,14.226 0.667,14.527 0.816,14.809 C0.966,15.90 1.180,15.311 1.459,15.472 L8.37,19.363 C8.316,19.524 8.616,19.605 8.934,19.605 C9.253,19.605 9.552,19.524 9.831,19.363 L16.499,15.472 C16.778,15.311 16.998,15.90 17.157,14.809 C17.317,14.527 17.396,14.226 17.396,13.904 L17.396,6.152 C17.396,5.830 17.321,5.529 17.172,5.247 ZM8.97,17.282 L2.416,13.843 L2.416,7.238 L8.97,10.526 L8.97,17.282 ZM8.994,8.897 L3.313,5.579 L8.994,2.291 L14.675,5.579 L8.994,8.897 ZM15.602,13.843 L9.891,17.282 L9.891,10.526 L15.602,7.238 L15.602,13.843 Z"/>
</svg>