<svg 
 xmlns="http://www.w3.org/2000/svg"
 xmlns:xlink="http://www.w3.org/1999/xlink"
 width="16px" height="14px">
<path fill-rule="evenodd"  fill="rgb(94, 209, 130)"
 d="M4.310,13.900 C3.830,13.900 3.425,13.735 3.94,13.404 C2.765,13.74 2.600,12.669 2.600,12.190 C2.600,11.710 2.765,11.305 3.94,10.975 C3.425,10.644 3.830,10.479 4.310,10.479 C4.450,10.479 4.572,10.492 4.677,10.517 C4.782,10.542 4.889,10.580 4.999,10.630 L6.274,9.40 C6.85,8.809 5.940,8.547 5.840,8.252 C5.740,7.957 5.714,7.650 5.764,7.330 L3.950,6.715 C3.800,6.965 3.602,7.159 3.357,7.299 C3.112,7.439 2.829,7.509 2.510,7.509 C2.29,7.509 1.625,7.345 1.295,7.15 C0.965,6.685 0.799,6.280 0.799,5.799 C0.799,5.320 0.965,4.915 1.295,4.584 C1.625,4.255 2.29,4.89 2.510,4.89 C2.989,4.89 3.394,4.255 3.725,4.584 C4.55,4.915 4.219,5.320 4.219,5.799 L4.219,5.860 L6.49,6.490 C6.230,6.169 6.447,5.924 6.702,5.755 C6.957,5.584 7.239,5.465 7.549,5.395 L7.549,3.459 C7.160,3.349 6.852,3.135 6.627,2.815 C6.402,2.494 6.290,2.160 6.290,1.810 C6.290,1.330 6.455,0.925 6.785,0.594 C7.115,0.264 7.520,0.100 7.999,0.100 C8.479,0.100 8.884,0.264 9.214,0.594 C9.545,0.925 9.710,1.330 9.710,1.810 C9.710,2.160 9.594,2.494 9.364,2.815 C9.134,3.135 8.829,3.349 8.450,3.459 L8.450,5.395 C8.759,5.465 9.45,5.584 9.305,5.755 C9.565,5.924 9.785,6.169 9.965,6.490 L11.780,5.860 L11.780,5.799 C11.780,5.320 11.944,4.915 12.275,4.584 C12.605,4.255 13.10,4.89 13.489,4.89 C13.970,4.89 14.375,4.255 14.704,4.584 C15.35,4.915 15.200,5.320 15.200,5.799 C15.200,6.280 15.35,6.685 14.704,7.15 C14.375,7.345 13.970,7.509 13.489,7.509 C13.170,7.509 12.885,7.439 12.635,7.299 C12.385,7.159 12.190,6.965 12.49,6.715 L10.235,7.330 C10.285,7.650 10.262,7.957 10.167,8.252 C10.72,8.547 9.925,8.809 9.725,9.40 L11.0,10.630 C11.110,10.580 11.217,10.542 11.322,10.517 C11.427,10.492 11.549,10.479 11.690,10.479 C12.170,10.479 12.575,10.644 12.905,10.975 C13.234,11.305 13.400,11.710 13.400,12.190 C13.400,12.669 13.234,13.74 12.905,13.404 C12.575,13.735 12.170,13.900 11.690,13.900 C11.210,13.900 10.805,13.735 10.474,13.404 C10.145,13.74 9.980,12.669 9.980,12.190 C9.980,11.989 10.7,11.809 10.62,11.649 C10.117,11.490 10.194,11.335 10.295,11.184 L9.20,9.595 C8.700,9.765 8.357,9.850 7.992,9.850 C7.627,9.850 7.285,9.765 6.964,9.595 L5.704,11.200 C5.804,11.349 5.882,11.502 5.937,11.657 C5.992,11.812 6.19,11.989 6.19,12.190 C6.19,12.669 5.854,13.74 5.525,13.404 C5.194,13.735 4.789,13.900 4.310,13.900 Z"/>
</svg>